<?xml version="1.0" encoding="utf-8"?>
<!-- Generator: Adobe Illustrator 16.0.0, SVG Export Plug-In . SVG Version: 6.00 Build 0)  -->
<!DOCTYPE svg PUBLIC "-//W3C//DTD SVG 1.1//EN" "http://www.w3.org/Graphics/SVG/1.1/DTD/svg11.dtd">
<svg version="1.1" id="Layer_1" xmlns="http://www.w3.org/2000/svg" xmlns:xlink="http://www.w3.org/1999/xlink" x="0px" y="0px"
	 width="662px" height="662px" viewBox="0 0 662 662" enable-background="new 0 0 662 662" xml:space="preserve">
<path fill-rule="evenodd" clip-rule="evenodd" fill="#97C115" d="M239.19,0H422.81C510.728,0,581.799,71.619,574,159.19
	c-2.51,28.185-0.703,83.137-2,111.404c-2.671,58.208,17.498,174,20,232.215C595.775,590.646,520.728,662,432.81,662H229.19
	C141.272,662,66.225,590.646,70,502.81c2.502-58.215,22.671-174.008,20-232.215c-1.297-28.267,0.51-83.219-2-111.404
	C80.202,71.619,151.272,0,239.19,0z"/>
<path fill-rule="evenodd" clip-rule="evenodd" fill="#F5F7F0" d="M494.961,261.45c-70.932,0-128.431,57.5-128.431,128.431
	c0,38.871,17.271,73.707,44.555,97.259l-80.106,80.107l-80.679-80.681c26.905-23.541,43.901-58.127,43.901-96.686
	c0-70.931-57.498-128.431-128.429-128.431c-70.932,0-128.431,57.5-128.431,128.431c0,70.929,57.499,128.431,128.431,128.431
	c15.819,0,30.966-2.867,44.96-8.098L330.978,630.46L450.89,510.549c13.745,5.021,28.588,7.763,44.071,7.763
	c70.931,0,128.429-57.502,128.429-128.431C623.39,318.95,565.892,261.45,494.961,261.45z M189.484,492.317
	c-32.554,0-58.941-26.388-58.941-58.939c0-6.079,0.922-11.942,2.631-17.46c4.628,6.889,12.491,11.423,21.415,11.423
	c14.239,0,25.782-11.543,25.782-25.782c0-9.77-5.435-18.269-13.444-22.643c6.949-2.881,14.566-4.479,22.558-4.479
	c32.552,0,58.939,26.389,58.939,58.941C248.424,465.93,222.036,492.317,189.484,492.317z M473.339,492.317
	c-32.554,0-58.941-26.388-58.941-58.939c0-6.079,0.922-11.942,2.631-17.46c4.628,6.889,12.491,11.423,21.415,11.423
	c14.239,0,25.782-11.543,25.782-25.782c0-9.77-5.435-18.269-13.444-22.643c6.949-2.881,14.566-4.479,22.558-4.479
	c32.552,0,58.939,26.389,58.939,58.941C532.278,465.93,505.891,492.317,473.339,492.317z"/>
</svg>
