<?xml version="1.0" encoding="utf-8"?>
<!-- Generator: Adobe Illustrator 16.0.0, SVG Export Plug-In . SVG Version: 6.00 Build 0)  -->
<!DOCTYPE svg PUBLIC "-//W3C//DTD SVG 1.1//EN" "http://www.w3.org/Graphics/SVG/1.1/DTD/svg11.dtd">
<svg version="1.1" id="Layer_1" xmlns="http://www.w3.org/2000/svg" xmlns:xlink="http://www.w3.org/1999/xlink" x="0px" y="0px"
	 width="3248.142px" height="1016.484px" viewBox="0 0 3248.142 1016.484" enable-background="new 0 0 3248.142 1016.484"
	 xml:space="preserve">
<g>
	<g>
		<path fill-rule="evenodd" clip-rule="evenodd" fill="#96C13D" d="M490.788,991.739h86.262V522.926h-86.262V991.739z
			 M537.67,282.894c-46.605,0-84.387,37.781-84.387,84.387c0,46.604,37.781,84.386,84.387,84.386s84.386-37.781,84.386-84.386
			C622.056,320.675,584.275,282.894,537.67,282.894z"/>
	</g>
</g>
<path fill-rule="evenodd" clip-rule="evenodd" fill="#96C13D" d="M816.257,729.679c0,100.078,0,262.061,0,262.061h-86.262V522.926
	h78.761c0,0,3.616,36.57,7.501,85.844c45.116-51.629,112.783-85.844,176.607-85.844c125.936,0,198.443,92.593,198.443,193.526
	c0,94.867,0,275.287,0,275.287h-86.262V742.706c0-87.479-42.139-138.769-112.516-138.769
	C909.756,603.938,832.297,674.439,816.257,729.679z"/>
<g>
	<g>
		<path fill-rule="evenodd" clip-rule="evenodd" fill="#96C13D" d="M2076.833,991.739h86.262V522.926h-86.262V991.739z
			 M2123.716,282.894c-46.605,0-84.387,37.781-84.387,84.387c0,46.604,37.781,84.386,84.387,84.386s84.385-37.781,84.385-84.386
			C2208.101,320.675,2170.322,282.894,2123.716,282.894z"/>
	</g>
</g>
<path fill-rule="evenodd" clip-rule="evenodd" fill="#96C13D" d="M2402.303,729.679c0,100.078,0,262.061,0,262.061h-86.262V522.926
	h78.761c0,0,3.615,36.57,7.501,85.844c45.116-51.629,112.783-85.844,176.607-85.844c125.936,0,198.443,92.593,198.443,193.526
	c0,94.867,0,275.287,0,275.287h-86.262V742.706c0-87.479-42.139-138.769-112.516-138.769
	C2495.802,603.938,2418.343,674.439,2402.303,729.679z"/>
<path fill-rule="evenodd" clip-rule="evenodd" fill="#96C13D" d="M1332.997,226.636h86.262V991.74h-86.262V226.636z"/>
<path fill-rule="evenodd" clip-rule="evenodd" fill="#96C13D" d="M1826.389,226.636h86.262V991.74h-86.262V226.636z"/>
<polygon fill-rule="evenodd" clip-rule="evenodd" fill="#96C13D" points="1559.644,753.442 1760.954,552.131 1699.958,491.135 
	1437.653,753.442 1700.694,1016.484 1761.69,955.488 "/>
<g>
	<path fill="#939292" d="M2409.275,256.641h35.576V29.688h-35.086V0h72.135v109.428c10.305-9.484,21.261-16.477,32.877-20.978
		c11.612-4.497,24.861-6.747,39.747-6.747c15.048,0,28.623,2.618,40.729,7.852c12.103,5.236,22.365,12.39,30.792,21.468
		c8.422,9.078,14.882,19.751,19.383,32.019c4.497,12.269,6.747,25.356,6.747,39.257c0,14.561-2.292,28.216-6.87,40.975
		c-4.581,12.759-11.083,23.884-19.505,33.368c-8.427,9.488-18.689,16.972-30.792,22.45c-12.107,5.479-25.683,8.219-40.729,8.219
		c-7.199,0-14.314-0.697-21.346-2.085c-7.035-1.392-13.74-3.436-20.119-6.134c-6.379-2.699-12.268-6.012-17.665-9.938
		c-5.398-3.925-9.898-8.422-13.495-13.494l-0.981,27.234h-71.397V256.641z M2546.427,256.641c10.467,0,19.79-1.84,27.971-5.521
		c8.178-3.681,15.047-8.71,20.61-15.089c5.559-6.38,9.813-13.863,12.758-22.45c2.944-8.588,4.417-17.869,4.417-27.848
		c0-9.814-1.515-19.138-4.539-27.971c-3.029-8.833-7.445-16.6-13.25-23.309c-5.808-6.705-12.8-12.022-20.978-15.948
		c-8.181-3.926-17.42-5.889-27.725-5.889c-7.361,0-14.23,1.024-20.61,3.067c-6.379,2.047-12.229,4.662-17.543,7.852
		c-5.317,3.189-10.144,6.624-14.476,10.305c-4.336,3.681-8.059,7.238-11.163,10.673v82.193c3.435,3.274,7.398,6.667,11.899,10.183
		c4.497,3.52,9.446,6.747,14.844,9.691s11.244,5.359,17.543,7.238C2532.481,255.701,2539.228,256.641,2546.427,256.641z"/>
	<path fill="#939292" d="M2720.138,193.339c0.491,9.488,2.454,18.118,5.889,25.885c3.435,7.771,8.178,14.438,14.23,19.997
		c6.05,5.562,13.288,9.856,21.714,12.881c8.423,3.028,17.949,4.539,28.584,4.539c6.379,0,12.674-0.736,18.893-2.208
		c6.214-1.473,12.103-3.558,17.665-6.257c5.559-2.699,10.711-5.927,15.457-9.691c4.743-3.761,8.749-8.013,12.022-12.759
		l25.026,18.647c-8.342,12.758-19.916,23.105-34.718,31.037c-14.806,7.932-33.245,11.899-55.327,11.899
		c-17.014,0-32.307-2.698-45.881-8.097c-13.579-5.397-25.068-12.758-34.473-22.082c-9.408-9.323-16.646-20.241-21.714-32.754
		c-5.072-12.514-7.606-25.886-7.606-40.116c0-14.882,2.779-28.622,8.343-41.22c5.559-12.593,13.164-23.431,22.817-32.509
		c9.649-9.078,21.101-16.151,34.35-21.224c13.249-5.067,27.641-7.605,43.183-7.605c16.193,0,30.424,2.905,42.691,8.71
		c12.268,5.808,22.53,13.659,30.792,23.554c8.258,9.898,14.434,21.346,18.524,34.35c4.087,13.004,6.134,26.621,6.134,40.852v4.171
		H2720.138z M2851.403,168.313c-0.981-8.013-3.108-15.416-6.379-22.205c-3.274-6.785-7.525-12.674-12.759-17.665
		c-5.236-4.988-11.493-8.871-18.77-11.655c-7.28-2.779-15.419-4.171-24.412-4.171c-9.979,0-18.854,1.35-26.621,4.049
		c-7.771,2.699-14.477,6.464-20.119,11.286c-5.644,4.826-10.225,10.673-13.74,17.543c-3.52,6.87-6.011,14.476-7.483,22.818H2851.403
		z"/>
	<path fill="#939292" d="M2909.307,85.383h30.424V22.082l37.048-7.852v71.152h42.446v27.234h-42.446v99.369
		c0,7.525,0.123,14.069,0.368,19.628c0.245,5.562,1.02,10.183,2.331,13.862c1.308,3.681,3.351,6.464,6.134,8.343
		c2.779,1.882,6.786,2.821,12.022,2.821h28.952v26.253h-33.859c-12.759,0-22.695-1.879-29.811-5.644
		c-7.115-3.761-12.391-8.955-15.825-15.58c-3.435-6.624-5.521-14.391-6.257-23.309c-0.736-8.913-1.104-18.604-1.104-29.074v-96.67
		h-30.424V85.383z"/>
	<path fill="#939292" d="M3055.293,109.183c8.833-8.833,19.789-15.618,32.877-20.364c13.085-4.742,28.051-7.115,44.9-7.115
		c15.373,0,28.216,1.84,38.521,5.521c10.305,3.68,18.482,8.549,24.535,14.599c6.05,6.053,10.344,13.004,12.882,20.854
		c2.533,7.852,3.803,15.948,3.803,24.29v109.674h35.331v26.253h-67.964l-0.49-20.364c-6.544,4.746-12.678,8.71-18.401,11.899
		c-5.728,3.189-11.329,5.728-16.807,7.606c-5.482,1.878-11.003,3.228-16.562,4.048c-5.562,0.816-11.371,1.227-17.421,1.227
		c-10.305,0-19.59-1.595-27.848-4.784c-8.261-3.189-15.296-7.398-21.101-12.636c-5.808-5.232-10.224-11.324-13.249-18.278
		c-3.028-6.951-4.539-14.188-4.539-21.714c0-12.269,2.247-22.408,6.748-30.425c4.496-8.012,10.588-14.392,18.278-19.138
		c7.687-4.742,16.723-8.054,27.112-9.937c10.385-1.878,21.384-2.821,33-2.821c7.851,0,15.618,0.41,23.309,1.227
		c7.687,0.82,15.702,2.047,24.045,3.681v-23.8c0-6.87-1.188-12.716-3.558-17.543c-2.373-4.822-5.644-8.71-9.814-11.654
		s-9.04-5.11-14.599-6.502c-5.562-1.388-11.451-2.085-17.666-2.085c-11.286,0-21.468,1.84-30.546,5.521
		c-9.078,3.68-16.481,9.285-22.205,16.807L3055.293,109.183z M3176.253,196.406c-5.237,0-11.819-0.633-19.751-1.901
		c-7.937-1.266-16.316-1.901-25.149-1.901c-6.379,0-12.759,0.452-19.138,1.349c-6.379,0.901-12.064,2.661-17.052,5.275
		c-4.991,2.618-9.04,6.379-12.146,11.286c-3.108,4.907-4.661,11.371-4.661,19.384c0,4.255,0.816,8.304,2.453,12.145
		c1.633,3.845,4.049,7.157,7.238,9.937c3.189,2.783,7.073,4.992,11.654,6.625c4.577,1.637,9.895,2.453,15.948,2.453
		c5.397,0,10.876-0.49,16.438-1.472c5.559-0.981,10.999-2.411,16.316-4.294c5.312-1.878,10.343-4.171,15.089-6.87
		c4.742-2.698,8.994-5.766,12.759-9.2V196.406z"/>
</g>
</svg>
