<?xml version="1.0" encoding="utf-8"?>
<!-- Generator: Adobe Illustrator 16.0.0, SVG Export Plug-In . SVG Version: 6.00 Build 0)  -->
<!DOCTYPE svg PUBLIC "-//W3C//DTD SVG 1.1//EN" "http://www.w3.org/Graphics/SVG/1.1/DTD/svg11.dtd">
<svg version="1.1" id="Layer_1" xmlns="http://www.w3.org/2000/svg" xmlns:xlink="http://www.w3.org/1999/xlink" x="0px" y="0px"
	 width="586.049px" height="553px" viewBox="37.341 98 586.049 553" enable-background="new 37.341 98 586.049 553"
	 xml:space="preserve">
<path fill="#97C115" d="M229.19,102c22.197-4.036,52.756-4,101.175-4s78.988-0.032,102.444,4
	C520.728,118.188,586,183.619,586,271.19c-2.882,32.294-0.502,156.404,2,214.619C591.775,573.646,516.729,645,428.81,645
	c0,0-26.917,6-97.81,6s-97.81-6-97.81-6C145.272,645,70.225,573.646,74,485.81c2.502-58.215,4.863-182.465,2-214.619
	C76,183.619,141.272,118.188,229.19,102z"/>
<path fill="#F5F7F0" d="M494.961,269.45c-70.932,0-128.431,57.5-128.431,128.431c0,38.871,17.271,73.707,44.555,97.259
	l-80.106,80.107L250.3,494.566c26.905-23.541,43.901-58.127,43.901-96.687c0-70.931-57.498-128.431-128.429-128.431
	c-70.932,0-128.431,57.5-128.431,128.431c0,70.929,57.499,128.431,128.431,128.431c15.819,0,30.966-2.866,44.96-8.098
	L330.979,638.46L450.89,518.549c13.745,5.021,28.589,7.764,44.071,7.764c70.931,0,128.429-57.503,128.429-128.432
	C623.39,326.95,565.892,269.45,494.961,269.45z M189.484,500.317c-32.554,0-58.941-26.389-58.941-58.939
	c0-6.079,0.922-11.942,2.631-17.46c4.628,6.889,12.491,11.423,21.415,11.423c14.239,0,25.782-11.543,25.782-25.782
	c0-9.77-5.435-18.269-13.444-22.643c6.949-2.881,14.566-4.479,22.558-4.479c32.552,0,58.939,26.389,58.939,58.94
	S222.036,500.317,189.484,500.317z M473.339,500.317c-32.554,0-58.94-26.389-58.94-58.939c0-6.079,0.922-11.942,2.631-17.46
	c4.628,6.889,12.49,11.423,21.415,11.423c14.238,0,25.781-11.543,25.781-25.782c0-9.77-5.435-18.269-13.443-22.643
	c6.949-2.881,14.565-4.479,22.558-4.479c32.552,0,58.939,26.389,58.939,58.94C532.278,473.93,505.891,500.317,473.339,500.317z"/>
</svg>
