<?xml version="1.0" encoding="utf-8"?>
<!-- Generator: Adobe Illustrator 16.0.0, SVG Export Plug-In . SVG Version: 6.00 Build 0)  -->
<!DOCTYPE svg PUBLIC "-//W3C//DTD SVG 1.1//EN" "http://www.w3.org/Graphics/SVG/1.1/DTD/svg11.dtd">
<svg version="1.1" id="Layer_1" xmlns="http://www.w3.org/2000/svg" xmlns:xlink="http://www.w3.org/1999/xlink" x="0px" y="0px"
	 width="662px" height="662px" viewBox="0 0 662 662" enable-background="new 0 0 662 662" xml:space="preserve">
<g>
	<defs>
		<path id="SVGID_1_" d="M159.189,0h343.62C590.729,0,662,71.272,662,159.19v343.621C662,590.729,590.729,662,502.81,662h-343.62
			C71.271,662,0,590.729,0,502.811V159.19C0,71.272,71.271,0,159.189,0z"/>
	</defs>
	<clipPath id="SVGID_2_">
		<use xlink:href="#SVGID_1_"  overflow="visible"/>
	</clipPath>
	<path clip-path="url(#SVGID_2_)" fill="#97C115" d="M159.19,0h343.62C590.729,0,662,71.272,662,159.19v343.62
		C662,590.729,590.729,662,502.81,662H159.19C71.272,662,0,590.729,0,502.81V159.19C0,71.272,71.272,0,159.19,0z"/>
	<path clip-path="url(#SVGID_2_)" fill="#F5F7F0" d="M494.961,261.45c-70.932,0-128.431,57.5-128.431,128.431
		c0,38.871,17.271,73.707,44.555,97.259l-80.106,80.107L250.3,486.566c26.905-23.541,43.901-58.127,43.901-96.687
		c0-70.931-57.498-128.431-128.429-128.431c-70.932,0-128.431,57.5-128.431,128.431c0,70.929,57.499,128.431,128.431,128.431
		c15.819,0,30.966-2.866,44.96-8.098L330.979,630.46L450.89,510.549c13.745,5.021,28.589,7.764,44.071,7.764
		c70.931,0,128.429-57.503,128.429-128.432C623.39,318.95,565.892,261.45,494.961,261.45z M189.484,492.317
		c-32.554,0-58.941-26.389-58.941-58.939c0-6.079,0.922-11.942,2.631-17.46c4.628,6.889,12.491,11.423,21.415,11.423
		c14.239,0,25.782-11.543,25.782-25.782c0-9.77-5.435-18.269-13.444-22.643c6.949-2.881,14.566-4.479,22.558-4.479
		c32.552,0,58.939,26.389,58.939,58.94S222.036,492.317,189.484,492.317z M473.339,492.317c-32.554,0-58.94-26.389-58.94-58.939
		c0-6.079,0.922-11.942,2.631-17.46c4.628,6.889,12.49,11.423,21.415,11.423c14.238,0,25.781-11.543,25.781-25.782
		c0-9.77-5.435-18.269-13.443-22.643c6.949-2.881,14.565-4.479,22.558-4.479c32.552,0,58.939,26.389,58.939,58.94
		C532.278,465.93,505.891,492.317,473.339,492.317z"/>
	<g clip-path="url(#SVGID_2_)">
		
			<image overflow="visible" opacity="0.35" width="849" height="526" xlink:href="2263F738F8275EC5.png"  transform="matrix(1 0 0 1 -93.5 -72.5)">
		</image>
		<g>
			<path fill="#828282" d="M159.19,0h343.619C590.729,0,662,71.272,662,159.19v113.62c0,43.959-31.605,65.939-331,65.939
				c-299.395,0-331-21.98-331-65.939V159.19C0,71.272,71.272,0,159.19,0z"/>
		</g>
	</g>
	<g clip-path="url(#SVGID_2_)">
		<g>
			<linearGradient id="SVGID_3_" gradientUnits="userSpaceOnUse" x1="4.882812e-04" y1="136.4048" x2="662" y2="136.4048">
				<stop  offset="0" style="stop-color:#EEEEEE"/>
				<stop  offset="0.5" style="stop-color:#F8F8F8"/>
				<stop  offset="1" style="stop-color:#EEEEEE"/>
			</linearGradient>
			<path fill="url(#SVGID_3_)" d="M159.19,0h343.619C590.729,0,662,71.272,662,159.19v113.62c0,0-44.605-20-330-20
				c-285.395,0-332,20-332,20V159.19C0,71.272,71.272,0,159.19,0z"/>
		</g>
		<defs>
			<filter id="Adobe_OpacityMaskFilter" filterUnits="userSpaceOnUse" x="0" y="0" width="662" height="272.81">
				
					<feColorMatrix  type="matrix" values="-1 0 0 0 1  0 -1 0 0 1  0 0 -1 0 1  0 0 0 1 0" color-interpolation-filters="sRGB" result="source"/>
			</filter>
		</defs>
		<mask maskUnits="userSpaceOnUse" x="0" y="0" width="662" height="272.81" id="SVGID_4_">
			<g filter="url(#Adobe_OpacityMaskFilter)">
				<image overflow="visible" width="667" height="278" xlink:href="2263F738F8275ECA.jpg"  transform="matrix(1 0 0 1 -2.5 -2.5)">
				</image>
			</g>
		</mask>
		<g opacity="0.5" mask="url(#SVGID_4_)">
			<path fill="#AAAAAA" d="M159.19,0h343.619C590.729,0,662,71.272,662,159.19v113.62c0,0-44.605-20-330-20
				c-285.395,0-332,20-332,20V159.19C0,71.272,71.272,0,159.19,0z"/>
		</g>
	</g>
	<g opacity="0.4" clip-path="url(#SVGID_2_)">
		<g>
			
				<radialGradient id="SVGID_5_" cx="330.6738" cy="295.7778" r="233.5276" gradientTransform="matrix(1.0078 0 0 0.9526 -2.5811 12.7727)" gradientUnits="userSpaceOnUse">
				<stop  offset="0" style="stop-color:#EEEEEE"/>
				<stop  offset="1" style="stop-color:#CCCCCC"/>
			</radialGradient>
			<path fill="url(#SVGID_5_)" d="M0.608,272.87c0,41.432,31.517,62.148,330.071,62.148c298.555,0,330.071-20.717,330.071-62.148
				c0,0-44.479-18.851-329.074-18.851C47.083,254.02,0.608,272.87,0.608,272.87z"/>
		</g>
		<defs>
			<filter id="Adobe_OpacityMaskFilter_1_" filterUnits="userSpaceOnUse" x="0.608" y="254.02" width="660.142" height="80.999">
				
					<feColorMatrix  type="matrix" values="-1 0 0 0 1  0 -1 0 0 1  0 0 -1 0 1  0 0 0 1 0" color-interpolation-filters="sRGB" result="source"/>
			</filter>
		</defs>
		<mask maskUnits="userSpaceOnUse" x="0.608" y="254.02" width="660.142" height="80.999" id="SVGID_6_">
			<g filter="url(#Adobe_OpacityMaskFilter_1_)">
				<image overflow="visible" width="665" height="86" xlink:href="2263F738F8275ECB.jpg"  transform="matrix(1 0 0 1 -1.5 251.5)">
				</image>
			</g>
		</mask>
		<g opacity="0.5" mask="url(#SVGID_6_)">
			<path fill="#AAAAAA" d="M0.608,272.87c0,41.432,31.517,62.148,330.071,62.148c298.555,0,330.071-20.717,330.071-62.148
				c0,0-44.479-18.851-329.074-18.851C47.083,254.02,0.608,272.87,0.608,272.87z"/>
		</g>
	</g>
</g>
<g>
	<g>
		<path fill="#96C13D" d="M133.571,210.219l15.682-1.648l-8.957-85.226l-15.684,1.648L133.571,210.219z M128.55,80.461
			c-8.472,0.891-14.618,8.479-13.727,16.953c0.891,8.472,8.48,14.619,16.952,13.728c8.474-0.891,14.62-8.481,13.729-16.953
			C144.614,85.715,137.022,79.57,128.55,80.461z"/>
	</g>
</g>
<path fill="#96C13D" d="M186.03,156.136c0.958,18.27,2.507,47.838,2.507,47.838L172.79,204.8l-4.485-85.579l14.377-0.754
	c0,0,1.011,6.643,2.191,15.598c7.742-9.855,19.767-16.748,31.418-17.359c22.988-1.205,37.109,15.003,38.075,33.427
	c0.907,17.318,2.633,50.253,2.633,50.253l-15.747,0.826l-2.382-45.46c-0.836-15.969-9.021-24.929-21.867-24.255
	C201.895,132.289,188.43,145.899,186.03,156.136z"/>
<g>
	<g>
		<path fill="#96C13D" d="M413.557,202.073l15.747,0.826l4.482-85.578l-15.744-0.826L413.557,202.073z M428.896,73.127
			c-8.508-0.446-15.765,6.089-16.212,14.597c-0.445,8.507,6.09,15.766,14.598,16.211c8.508,0.446,15.765-6.089,16.211-14.597
			C443.939,80.83,437.404,73.573,428.896,73.127z"/>
	</g>
</g>
<path fill="#96C13D" d="M477.102,159.165c-1.914,18.194-5.009,47.641-5.009,47.641l-15.68-1.648l8.957-85.226l14.318,1.504
	c0,0-0.042,6.718-0.277,15.749c9.189-8.523,22.145-13.451,33.747-12.231c22.894,2.406,34.307,20.625,32.378,38.974
	c-1.813,17.246-5.26,50.045-5.26,50.045l-15.682-1.648l4.757-45.272c1.674-15.903-5.008-26.033-17.803-27.377
	C496.502,138.092,481.072,149.429,477.102,159.165z"/>
<path fill="#96C13D" d="M279.73,58.166l15.765-0.275l2.442,139.835l-15.767,0.275L279.73,58.166z"/>
<path fill="#96C13D" d="M372.144,57.819l15.766,0.275l-2.44,139.835l-15.766-0.275L372.144,57.819z"/>
<polygon fill="#96C13D" points="322.288,151.965 359.087,115.167 347.938,104.017 299.989,151.965 348.071,200.048 359.221,188.898 
	"/>
</svg>
