<?xml version="1.0" encoding="utf-8"?>
<!-- Generator: Adobe Illustrator 16.0.0, SVG Export Plug-In . SVG Version: 6.00 Build 0)  -->
<!DOCTYPE svg PUBLIC "-//W3C//DTD SVG 1.1//EN" "http://www.w3.org/Graphics/SVG/1.1/DTD/svg11.dtd">
<svg version="1.1" id="Layer_1" xmlns="http://www.w3.org/2000/svg" xmlns:xlink="http://www.w3.org/1999/xlink" x="0px" y="0px"
	 width="1000px" height="1000px" viewBox="0 0 1000 1000" enable-background="new 0 0 1000 1000" xml:space="preserve">
<g>
	<circle fill="#FFFFFF" cx="500" cy="500" r="500"/>
	<path d="M500,160c45.971,0,90.48,8.967,132.294,26.653c40.468,17.116,76.846,41.653,108.122,72.93
		c31.277,31.276,55.814,67.654,72.931,108.122C831.032,409.52,840,454.029,840,500s-8.968,90.48-26.653,132.294
		c-17.116,40.468-41.653,76.846-72.931,108.122c-31.276,31.277-67.654,55.814-108.122,72.931C590.48,831.032,545.971,840,500,840
		s-90.48-8.968-132.294-26.653c-40.468-17.116-76.846-41.653-108.122-72.931c-31.277-31.276-55.814-67.654-72.93-108.122
		C168.967,590.48,160,545.971,160,500s8.967-90.48,26.653-132.294c17.116-40.468,41.653-76.846,72.93-108.122
		c31.276-31.277,67.654-55.814,108.122-72.93C409.52,168.967,454.029,160,500,160 M500,0C223.857,0,0,223.857,0,500
		s223.857,500,500,500s500-223.857,500-500S776.143,0,500,0L500,0z"/>
</g>
<g>
	<circle cx="500" cy="500" r="176.312"/>
</g>
</svg>
